<mxfile host="app.diagrams.net" agent="Mozilla/5.0 (Windows NT 10.0; Win64; x64) AppleWebKit/537.36 (KHTML, like Gecko) Chrome/129.0.0.0 Safari/537.36" version="24.7.17" pages="2">
  <diagram name="第 1 页" id="b-EVU40KWxajxsrVCCrd">
    <mxGraphModel dx="842" dy="523" grid="1" gridSize="10" guides="1" tooltips="1" connect="1" arrows="1" fold="1" page="0" pageScale="1" pageWidth="827" pageHeight="1169" math="0" shadow="0">
      <root>
        <mxCell id="0" />
        <mxCell id="1" parent="0" />
        <mxCell id="rKDLhmpvDE_6_bQ8ug5Q-1" value="MUX" style="shape=trapezoid;perimeter=trapezoidPerimeter;whiteSpace=wrap;html=1;fixedSize=1;rotation=90;" parent="1" vertex="1">
          <mxGeometry x="230" y="250" width="120" height="60" as="geometry" />
        </mxCell>
        <mxCell id="BjeTS2h7bdXaaDoNKuoi-2" value="" style="endArrow=classic;startArrow=classic;html=1;rounded=0;entryX=0.25;entryY=1;entryDx=0;entryDy=0;" parent="1" target="rKDLhmpvDE_6_bQ8ug5Q-1" edge="1">
          <mxGeometry width="50" height="50" relative="1" as="geometry">
            <mxPoint x="200" y="250" as="sourcePoint" />
            <mxPoint x="200" y="260" as="targetPoint" />
          </mxGeometry>
        </mxCell>
        <mxCell id="BjeTS2h7bdXaaDoNKuoi-3" value="" style="endArrow=classic;startArrow=classic;html=1;rounded=0;entryX=0.75;entryY=1;entryDx=0;entryDy=0;" parent="1" target="rKDLhmpvDE_6_bQ8ug5Q-1" edge="1">
          <mxGeometry width="50" height="50" relative="1" as="geometry">
            <mxPoint x="200" y="310" as="sourcePoint" />
            <mxPoint x="200" y="320" as="targetPoint" />
          </mxGeometry>
        </mxCell>
        <mxCell id="BjeTS2h7bdXaaDoNKuoi-5" value="Master 1&lt;div&gt;Instruction&lt;/div&gt;" style="rounded=0;whiteSpace=wrap;html=1;" parent="1" vertex="1">
          <mxGeometry x="110" y="230" width="90" height="40" as="geometry" />
        </mxCell>
        <mxCell id="BjeTS2h7bdXaaDoNKuoi-6" value="Master 2&lt;div&gt;Data&lt;/div&gt;" style="rounded=0;whiteSpace=wrap;html=1;" parent="1" vertex="1">
          <mxGeometry x="110" y="290" width="90" height="40" as="geometry" />
        </mxCell>
        <mxCell id="ebW_fFtAr_l6kahx4v87-1" value="Arbiter" style="rounded=0;whiteSpace=wrap;html=1;" parent="1" vertex="1">
          <mxGeometry x="340" y="440" width="120" height="80" as="geometry" />
        </mxCell>
        <mxCell id="ebW_fFtAr_l6kahx4v87-2" value="" style="endArrow=classic;html=1;rounded=0;exitX=0;exitY=0.5;exitDx=0;exitDy=0;entryX=0;entryY=0.75;entryDx=0;entryDy=0;" parent="1" source="BjeTS2h7bdXaaDoNKuoi-5" target="ebW_fFtAr_l6kahx4v87-1" edge="1">
          <mxGeometry width="50" height="50" relative="1" as="geometry">
            <mxPoint x="210" y="470" as="sourcePoint" />
            <mxPoint x="260" y="420" as="targetPoint" />
            <Array as="points">
              <mxPoint x="70" y="250" />
              <mxPoint x="70" y="500" />
            </Array>
          </mxGeometry>
        </mxCell>
        <mxCell id="ebW_fFtAr_l6kahx4v87-4" value="" style="endArrow=classic;html=1;rounded=0;entryX=0;entryY=0.25;entryDx=0;entryDy=0;exitX=0;exitY=0.5;exitDx=0;exitDy=0;" parent="1" source="BjeTS2h7bdXaaDoNKuoi-6" target="ebW_fFtAr_l6kahx4v87-1" edge="1">
          <mxGeometry width="50" height="50" relative="1" as="geometry">
            <mxPoint x="110" y="420" as="sourcePoint" />
            <mxPoint x="160" y="370" as="targetPoint" />
            <Array as="points">
              <mxPoint x="90" y="310" />
              <mxPoint x="90" y="460" />
            </Array>
          </mxGeometry>
        </mxCell>
        <mxCell id="ebW_fFtAr_l6kahx4v87-5" value="" style="endArrow=classic;html=1;rounded=0;entryX=1;entryY=0.5;entryDx=0;entryDy=0;exitX=0.5;exitY=0;exitDx=0;exitDy=0;" parent="1" source="ebW_fFtAr_l6kahx4v87-1" target="rKDLhmpvDE_6_bQ8ug5Q-1" edge="1">
          <mxGeometry width="50" height="50" relative="1" as="geometry">
            <mxPoint x="420" y="440" as="sourcePoint" />
            <mxPoint x="470" y="390" as="targetPoint" />
            <Array as="points">
              <mxPoint x="400" y="380" />
              <mxPoint x="290" y="380" />
            </Array>
          </mxGeometry>
        </mxCell>
        <mxCell id="ebW_fFtAr_l6kahx4v87-6" value="DMUX" style="shape=trapezoid;perimeter=trapezoidPerimeter;whiteSpace=wrap;html=1;fixedSize=1;rotation=-90;" parent="1" vertex="1">
          <mxGeometry x="450" y="250" width="120" height="60" as="geometry" />
        </mxCell>
        <mxCell id="ebW_fFtAr_l6kahx4v87-7" value="" style="endArrow=classic;startArrow=classic;html=1;rounded=0;exitX=0.5;exitY=0;exitDx=0;exitDy=0;entryX=0.5;entryY=0;entryDx=0;entryDy=0;" parent="1" source="rKDLhmpvDE_6_bQ8ug5Q-1" target="ebW_fFtAr_l6kahx4v87-6" edge="1">
          <mxGeometry width="50" height="50" relative="1" as="geometry">
            <mxPoint x="350" y="290" as="sourcePoint" />
            <mxPoint x="400" y="240" as="targetPoint" />
          </mxGeometry>
        </mxCell>
        <mxCell id="ebW_fFtAr_l6kahx4v87-8" value="" style="endArrow=classic;html=1;rounded=0;" parent="1" target="ebW_fFtAr_l6kahx4v87-6" edge="1">
          <mxGeometry width="50" height="50" relative="1" as="geometry">
            <mxPoint x="400" y="380" as="sourcePoint" />
            <mxPoint x="470" y="330" as="targetPoint" />
            <Array as="points">
              <mxPoint x="510" y="380" />
            </Array>
          </mxGeometry>
        </mxCell>
        <mxCell id="ebW_fFtAr_l6kahx4v87-10" value="Slave 0&lt;div&gt;SRAM&lt;/div&gt;" style="rounded=0;whiteSpace=wrap;html=1;" parent="1" vertex="1">
          <mxGeometry x="600" y="200" width="90" height="40" as="geometry" />
        </mxCell>
        <mxCell id="ebW_fFtAr_l6kahx4v87-11" value="Slave 1&lt;div&gt;Clock Control&lt;/div&gt;" style="rounded=0;whiteSpace=wrap;html=1;" parent="1" vertex="1">
          <mxGeometry x="600" y="260" width="90" height="40" as="geometry" />
        </mxCell>
        <mxCell id="ebW_fFtAr_l6kahx4v87-12" value="Slave 2&lt;br&gt;UART" style="rounded=0;whiteSpace=wrap;html=1;" parent="1" vertex="1">
          <mxGeometry x="600" y="320" width="90" height="40" as="geometry" />
        </mxCell>
        <mxCell id="ebW_fFtAr_l6kahx4v87-13" value="" style="endArrow=classic;startArrow=classic;html=1;rounded=0;exitX=0.75;exitY=1;exitDx=0;exitDy=0;entryX=0;entryY=0.5;entryDx=0;entryDy=0;" parent="1" source="ebW_fFtAr_l6kahx4v87-6" target="ebW_fFtAr_l6kahx4v87-10" edge="1">
          <mxGeometry width="50" height="50" relative="1" as="geometry">
            <mxPoint x="540" y="260" as="sourcePoint" />
            <mxPoint x="590" y="210" as="targetPoint" />
          </mxGeometry>
        </mxCell>
        <mxCell id="ebW_fFtAr_l6kahx4v87-14" value="" style="endArrow=classic;startArrow=classic;html=1;rounded=0;entryX=0;entryY=0.5;entryDx=0;entryDy=0;exitX=0.5;exitY=1;exitDx=0;exitDy=0;" parent="1" source="ebW_fFtAr_l6kahx4v87-6" target="ebW_fFtAr_l6kahx4v87-11" edge="1">
          <mxGeometry width="50" height="50" relative="1" as="geometry">
            <mxPoint x="510" y="310" as="sourcePoint" />
            <mxPoint x="560" y="260" as="targetPoint" />
          </mxGeometry>
        </mxCell>
        <mxCell id="ebW_fFtAr_l6kahx4v87-15" value="" style="endArrow=classic;startArrow=classic;html=1;rounded=0;entryX=0;entryY=0.5;entryDx=0;entryDy=0;exitX=0.25;exitY=1;exitDx=0;exitDy=0;" parent="1" source="ebW_fFtAr_l6kahx4v87-6" target="ebW_fFtAr_l6kahx4v87-12" edge="1">
          <mxGeometry width="50" height="50" relative="1" as="geometry">
            <mxPoint x="510" y="310" as="sourcePoint" />
            <mxPoint x="560" y="260" as="targetPoint" />
          </mxGeometry>
        </mxCell>
        <mxCell id="ebW_fFtAr_l6kahx4v87-16" value="" style="endArrow=classic;html=1;rounded=0;" parent="1" edge="1">
          <mxGeometry width="50" height="50" relative="1" as="geometry">
            <mxPoint x="480" y="480" as="sourcePoint" />
            <mxPoint x="560" y="480" as="targetPoint" />
          </mxGeometry>
        </mxCell>
        <mxCell id="ebW_fFtAr_l6kahx4v87-17" value="TinyRISCV Core" style="rounded=0;whiteSpace=wrap;html=1;" parent="1" vertex="1">
          <mxGeometry x="560" y="450" width="120" height="60" as="geometry" />
        </mxCell>
        <mxCell id="ebW_fFtAr_l6kahx4v87-18" value="Stall Flag" style="text;html=1;align=center;verticalAlign=middle;whiteSpace=wrap;rounded=0;" parent="1" vertex="1">
          <mxGeometry x="490" y="450" width="60" height="30" as="geometry" />
        </mxCell>
        <mxCell id="qNYa9hGUip3nn4nf7X7f-1" value="0x0000_0000&lt;div&gt;32K Byte&lt;/div&gt;" style="text;html=1;align=center;verticalAlign=middle;whiteSpace=wrap;rounded=0;" vertex="1" parent="1">
          <mxGeometry x="690" y="205" width="100" height="30" as="geometry" />
        </mxCell>
        <mxCell id="qNYa9hGUip3nn4nf7X7f-2" value="0x4000_2000&lt;div&gt;4 Byte&lt;/div&gt;" style="text;html=1;align=center;verticalAlign=middle;whiteSpace=wrap;rounded=0;" vertex="1" parent="1">
          <mxGeometry x="690" y="265" width="100" height="30" as="geometry" />
        </mxCell>
        <mxCell id="qNYa9hGUip3nn4nf7X7f-3" value="0x4000_d000&lt;div&gt;32 Byte&lt;/div&gt;" style="text;html=1;align=center;verticalAlign=middle;whiteSpace=wrap;rounded=0;" vertex="1" parent="1">
          <mxGeometry x="690" y="325" width="100" height="30" as="geometry" />
        </mxCell>
      </root>
    </mxGraphModel>
  </diagram>
  <diagram id="SIlsytZ1vfuuJoF5Wqu-" name="第 2 页">
    <mxGraphModel dx="1563" dy="723" grid="1" gridSize="10" guides="1" tooltips="1" connect="1" arrows="1" fold="1" page="0" pageScale="1" pageWidth="827" pageHeight="1169" math="0" shadow="0">
      <root>
        <mxCell id="0" />
        <mxCell id="1" parent="0" />
        <mxCell id="seRImUK0ty6d0D9ATe7a-1" value="Data Req" style="text;html=1;align=right;verticalAlign=middle;whiteSpace=wrap;rounded=0;" vertex="1" parent="1">
          <mxGeometry x="-380" y="110" width="60" height="40" as="geometry" />
        </mxCell>
        <mxCell id="seRImUK0ty6d0D9ATe7a-2" value="Hold Flag" style="text;html=1;align=right;verticalAlign=middle;whiteSpace=wrap;rounded=0;" vertex="1" parent="1">
          <mxGeometry x="-380" y="150" width="60" height="40" as="geometry" />
        </mxCell>
        <mxCell id="seRImUK0ty6d0D9ATe7a-3" value="" style="endArrow=none;html=1;rounded=0;" edge="1" parent="1">
          <mxGeometry width="50" height="50" relative="1" as="geometry">
            <mxPoint x="-280" y="140" as="sourcePoint" />
            <mxPoint x="-240" y="140" as="targetPoint" />
          </mxGeometry>
        </mxCell>
        <mxCell id="seRImUK0ty6d0D9ATe7a-4" value="" style="endArrow=none;html=1;rounded=0;" edge="1" parent="1">
          <mxGeometry width="50" height="50" relative="1" as="geometry">
            <mxPoint x="-240" y="140" as="sourcePoint" />
            <mxPoint x="-200" y="140" as="targetPoint" />
            <Array as="points">
              <mxPoint x="-240" y="120" />
              <mxPoint x="-200" y="120" />
            </Array>
          </mxGeometry>
        </mxCell>
        <mxCell id="seRImUK0ty6d0D9ATe7a-5" value="" style="endArrow=none;html=1;rounded=0;" edge="1" parent="1">
          <mxGeometry width="50" height="50" relative="1" as="geometry">
            <mxPoint x="-200" y="140" as="sourcePoint" />
            <mxPoint x="-160" y="140" as="targetPoint" />
          </mxGeometry>
        </mxCell>
        <mxCell id="seRImUK0ty6d0D9ATe7a-8" value="" style="endArrow=none;html=1;rounded=0;" edge="1" parent="1">
          <mxGeometry width="50" height="50" relative="1" as="geometry">
            <mxPoint x="-240" y="180" as="sourcePoint" />
            <mxPoint x="-200" y="180" as="targetPoint" />
            <Array as="points">
              <mxPoint x="-240" y="160" />
              <mxPoint x="-200" y="160" />
            </Array>
          </mxGeometry>
        </mxCell>
        <mxCell id="seRImUK0ty6d0D9ATe7a-11" value="" style="endArrow=none;html=1;rounded=0;" edge="1" parent="1">
          <mxGeometry width="50" height="50" relative="1" as="geometry">
            <mxPoint x="-280" y="180" as="sourcePoint" />
            <mxPoint x="-240" y="180" as="targetPoint" />
          </mxGeometry>
        </mxCell>
        <mxCell id="seRImUK0ty6d0D9ATe7a-12" value="" style="endArrow=none;html=1;rounded=0;" edge="1" parent="1">
          <mxGeometry width="50" height="50" relative="1" as="geometry">
            <mxPoint x="-200" y="180" as="sourcePoint" />
            <mxPoint x="-80" y="180" as="targetPoint" />
          </mxGeometry>
        </mxCell>
        <mxCell id="seRImUK0ty6d0D9ATe7a-14" value="Data Req" style="text;html=1;align=right;verticalAlign=middle;whiteSpace=wrap;rounded=0;" vertex="1" parent="1">
          <mxGeometry x="-40" y="90" width="60" height="40" as="geometry" />
        </mxCell>
        <mxCell id="seRImUK0ty6d0D9ATe7a-15" value="Gran" style="text;html=1;align=right;verticalAlign=middle;whiteSpace=wrap;rounded=0;" vertex="1" parent="1">
          <mxGeometry x="-40" y="130" width="60" height="40" as="geometry" />
        </mxCell>
        <mxCell id="seRImUK0ty6d0D9ATe7a-17" value="" style="endArrow=none;html=1;rounded=0;" edge="1" parent="1">
          <mxGeometry width="50" height="50" relative="1" as="geometry">
            <mxPoint x="-200" y="220" as="sourcePoint" />
            <mxPoint x="-80" y="220" as="targetPoint" />
          </mxGeometry>
        </mxCell>
        <mxCell id="seRImUK0ty6d0D9ATe7a-18" value="" style="endArrow=none;html=1;rounded=0;" edge="1" parent="1">
          <mxGeometry width="50" height="50" relative="1" as="geometry">
            <mxPoint x="-200" y="140" as="sourcePoint" />
            <mxPoint x="-80" y="140" as="targetPoint" />
          </mxGeometry>
        </mxCell>
        <mxCell id="seRImUK0ty6d0D9ATe7a-23" value="" style="endArrow=none;html=1;rounded=0;" edge="1" parent="1">
          <mxGeometry width="50" height="50" relative="1" as="geometry">
            <mxPoint x="60" y="120" as="sourcePoint" />
            <mxPoint x="100" y="120" as="targetPoint" />
          </mxGeometry>
        </mxCell>
        <mxCell id="seRImUK0ty6d0D9ATe7a-24" value="" style="endArrow=none;html=1;rounded=0;" edge="1" parent="1">
          <mxGeometry width="50" height="50" relative="1" as="geometry">
            <mxPoint x="100" y="120" as="sourcePoint" />
            <mxPoint x="140" y="120" as="targetPoint" />
            <Array as="points">
              <mxPoint x="100" y="100" />
              <mxPoint x="140" y="100" />
            </Array>
          </mxGeometry>
        </mxCell>
        <mxCell id="seRImUK0ty6d0D9ATe7a-25" value="" style="endArrow=none;html=1;rounded=0;" edge="1" parent="1">
          <mxGeometry width="50" height="50" relative="1" as="geometry">
            <mxPoint x="140" y="120" as="sourcePoint" />
            <mxPoint x="180" y="120" as="targetPoint" />
          </mxGeometry>
        </mxCell>
        <mxCell id="seRImUK0ty6d0D9ATe7a-26" value="" style="endArrow=none;html=1;rounded=0;" edge="1" parent="1">
          <mxGeometry width="50" height="50" relative="1" as="geometry">
            <mxPoint x="140" y="120" as="sourcePoint" />
            <mxPoint x="260" y="120" as="targetPoint" />
          </mxGeometry>
        </mxCell>
        <mxCell id="seRImUK0ty6d0D9ATe7a-29" value="Read Data" style="text;html=1;align=right;verticalAlign=middle;whiteSpace=wrap;rounded=0;" vertex="1" parent="1">
          <mxGeometry x="-380" y="190" width="60" height="40" as="geometry" />
        </mxCell>
        <mxCell id="seRImUK0ty6d0D9ATe7a-30" value="Write Data" style="text;html=1;align=right;verticalAlign=middle;whiteSpace=wrap;rounded=0;" vertex="1" parent="1">
          <mxGeometry x="-380" y="230" width="60" height="40" as="geometry" />
        </mxCell>
        <mxCell id="seRImUK0ty6d0D9ATe7a-31" value="" style="endArrow=none;html=1;rounded=0;" edge="1" parent="1">
          <mxGeometry width="50" height="50" relative="1" as="geometry">
            <mxPoint x="-240" y="220" as="sourcePoint" />
            <mxPoint x="-200" y="220" as="targetPoint" />
            <Array as="points">
              <mxPoint x="-230" y="200" />
              <mxPoint x="-210" y="200" />
            </Array>
          </mxGeometry>
        </mxCell>
        <mxCell id="seRImUK0ty6d0D9ATe7a-32" value="" style="endArrow=none;html=1;rounded=0;" edge="1" parent="1">
          <mxGeometry width="50" height="50" relative="1" as="geometry">
            <mxPoint x="-240" y="200" as="sourcePoint" />
            <mxPoint x="-200" y="200" as="targetPoint" />
            <Array as="points">
              <mxPoint x="-230" y="220" />
              <mxPoint x="-210" y="220" />
            </Array>
          </mxGeometry>
        </mxCell>
        <mxCell id="seRImUK0ty6d0D9ATe7a-34" value="" style="endArrow=none;html=1;rounded=0;" edge="1" parent="1">
          <mxGeometry width="50" height="50" relative="1" as="geometry">
            <mxPoint x="-200" y="260" as="sourcePoint" />
            <mxPoint x="-160" y="260" as="targetPoint" />
            <Array as="points">
              <mxPoint x="-190" y="240" />
              <mxPoint x="-170" y="240" />
            </Array>
          </mxGeometry>
        </mxCell>
        <mxCell id="seRImUK0ty6d0D9ATe7a-35" value="" style="endArrow=none;html=1;rounded=0;" edge="1" parent="1">
          <mxGeometry width="50" height="50" relative="1" as="geometry">
            <mxPoint x="-200" y="240" as="sourcePoint" />
            <mxPoint x="-160" y="240" as="targetPoint" />
            <Array as="points">
              <mxPoint x="-190" y="260" />
              <mxPoint x="-170" y="260" />
            </Array>
          </mxGeometry>
        </mxCell>
        <mxCell id="seRImUK0ty6d0D9ATe7a-36" value="" style="endArrow=none;html=1;rounded=0;" edge="1" parent="1">
          <mxGeometry width="50" height="50" relative="1" as="geometry">
            <mxPoint x="-280" y="220" as="sourcePoint" />
            <mxPoint x="-240" y="220" as="targetPoint" />
          </mxGeometry>
        </mxCell>
        <mxCell id="seRImUK0ty6d0D9ATe7a-39" value="" style="endArrow=none;html=1;rounded=0;" edge="1" parent="1">
          <mxGeometry width="50" height="50" relative="1" as="geometry">
            <mxPoint x="-280" y="260" as="sourcePoint" />
            <mxPoint x="-200" y="260" as="targetPoint" />
          </mxGeometry>
        </mxCell>
        <mxCell id="seRImUK0ty6d0D9ATe7a-40" value="" style="endArrow=none;html=1;rounded=0;" edge="1" parent="1">
          <mxGeometry width="50" height="50" relative="1" as="geometry">
            <mxPoint x="-160" y="260" as="sourcePoint" />
            <mxPoint x="-80" y="260" as="targetPoint" />
          </mxGeometry>
        </mxCell>
        <mxCell id="seRImUK0ty6d0D9ATe7a-41" value="" style="endArrow=none;html=1;rounded=0;" edge="1" parent="1">
          <mxGeometry width="50" height="50" relative="1" as="geometry">
            <mxPoint x="100" y="159.8" as="sourcePoint" />
            <mxPoint x="140" y="159.8" as="targetPoint" />
            <Array as="points">
              <mxPoint x="100" y="139.8" />
              <mxPoint x="140" y="139.8" />
            </Array>
          </mxGeometry>
        </mxCell>
        <mxCell id="seRImUK0ty6d0D9ATe7a-42" value="" style="endArrow=none;html=1;rounded=0;" edge="1" parent="1">
          <mxGeometry width="50" height="50" relative="1" as="geometry">
            <mxPoint x="60" y="159.8" as="sourcePoint" />
            <mxPoint x="100" y="159.8" as="targetPoint" />
          </mxGeometry>
        </mxCell>
        <mxCell id="seRImUK0ty6d0D9ATe7a-43" value="" style="endArrow=none;html=1;rounded=0;" edge="1" parent="1">
          <mxGeometry width="50" height="50" relative="1" as="geometry">
            <mxPoint x="140" y="159.8" as="sourcePoint" />
            <mxPoint x="260" y="159.8" as="targetPoint" />
          </mxGeometry>
        </mxCell>
        <mxCell id="seRImUK0ty6d0D9ATe7a-44" value="Read Data" style="text;html=1;align=right;verticalAlign=middle;whiteSpace=wrap;rounded=0;" vertex="1" parent="1">
          <mxGeometry x="-40" y="170" width="60" height="40" as="geometry" />
        </mxCell>
        <mxCell id="seRImUK0ty6d0D9ATe7a-45" value="Write Data" style="text;html=1;align=right;verticalAlign=middle;whiteSpace=wrap;rounded=0;" vertex="1" parent="1">
          <mxGeometry x="-40" y="210" width="60" height="40" as="geometry" />
        </mxCell>
        <mxCell id="seRImUK0ty6d0D9ATe7a-46" value="" style="endArrow=none;html=1;rounded=0;" edge="1" parent="1">
          <mxGeometry width="50" height="50" relative="1" as="geometry">
            <mxPoint x="140" y="199.65999999999997" as="sourcePoint" />
            <mxPoint x="180" y="199.65999999999997" as="targetPoint" />
            <Array as="points">
              <mxPoint x="150" y="179.65999999999997" />
              <mxPoint x="170" y="179.65999999999997" />
            </Array>
          </mxGeometry>
        </mxCell>
        <mxCell id="seRImUK0ty6d0D9ATe7a-47" value="" style="endArrow=none;html=1;rounded=0;" edge="1" parent="1">
          <mxGeometry width="50" height="50" relative="1" as="geometry">
            <mxPoint x="140" y="179.65999999999997" as="sourcePoint" />
            <mxPoint x="180" y="179.65999999999997" as="targetPoint" />
            <Array as="points">
              <mxPoint x="150" y="199.65999999999997" />
              <mxPoint x="170" y="199.65999999999997" />
            </Array>
          </mxGeometry>
        </mxCell>
        <mxCell id="seRImUK0ty6d0D9ATe7a-48" value="" style="endArrow=none;html=1;rounded=0;" edge="1" parent="1">
          <mxGeometry width="50" height="50" relative="1" as="geometry">
            <mxPoint x="60" y="199.65999999999997" as="sourcePoint" />
            <mxPoint x="140" y="199.65999999999997" as="targetPoint" />
          </mxGeometry>
        </mxCell>
        <mxCell id="seRImUK0ty6d0D9ATe7a-49" value="" style="endArrow=none;html=1;rounded=0;" edge="1" parent="1">
          <mxGeometry width="50" height="50" relative="1" as="geometry">
            <mxPoint x="180" y="199.65999999999997" as="sourcePoint" />
            <mxPoint x="260" y="199.65999999999997" as="targetPoint" />
          </mxGeometry>
        </mxCell>
        <mxCell id="seRImUK0ty6d0D9ATe7a-50" value="" style="endArrow=none;html=1;rounded=0;" edge="1" parent="1">
          <mxGeometry width="50" height="50" relative="1" as="geometry">
            <mxPoint x="140" y="239.65999999999997" as="sourcePoint" />
            <mxPoint x="180" y="239.65999999999997" as="targetPoint" />
            <Array as="points">
              <mxPoint x="150" y="219.65999999999997" />
              <mxPoint x="170" y="219.65999999999997" />
            </Array>
          </mxGeometry>
        </mxCell>
        <mxCell id="seRImUK0ty6d0D9ATe7a-51" value="" style="endArrow=none;html=1;rounded=0;" edge="1" parent="1">
          <mxGeometry width="50" height="50" relative="1" as="geometry">
            <mxPoint x="140" y="219.65999999999997" as="sourcePoint" />
            <mxPoint x="180" y="219.65999999999997" as="targetPoint" />
            <Array as="points">
              <mxPoint x="150" y="239.65999999999997" />
              <mxPoint x="170" y="239.65999999999997" />
            </Array>
          </mxGeometry>
        </mxCell>
        <mxCell id="seRImUK0ty6d0D9ATe7a-52" value="" style="endArrow=none;html=1;rounded=0;" edge="1" parent="1">
          <mxGeometry width="50" height="50" relative="1" as="geometry">
            <mxPoint x="60" y="239.65999999999997" as="sourcePoint" />
            <mxPoint x="140" y="239.65999999999997" as="targetPoint" />
          </mxGeometry>
        </mxCell>
        <mxCell id="seRImUK0ty6d0D9ATe7a-53" value="" style="endArrow=none;html=1;rounded=0;" edge="1" parent="1">
          <mxGeometry width="50" height="50" relative="1" as="geometry">
            <mxPoint x="180" y="239.65999999999997" as="sourcePoint" />
            <mxPoint x="260" y="239.65999999999997" as="targetPoint" />
          </mxGeometry>
        </mxCell>
        <mxCell id="seRImUK0ty6d0D9ATe7a-54" value="rib Bus" style="text;html=1;align=center;verticalAlign=middle;whiteSpace=wrap;rounded=0;" vertex="1" parent="1">
          <mxGeometry x="-360" y="50" width="280" height="30" as="geometry" />
        </mxCell>
        <mxCell id="seRImUK0ty6d0D9ATe7a-55" value="AHB Bus" style="text;html=1;align=center;verticalAlign=middle;whiteSpace=wrap;rounded=0;" vertex="1" parent="1">
          <mxGeometry x="-20" y="50" width="280" height="30" as="geometry" />
        </mxCell>
        <mxCell id="seRImUK0ty6d0D9ATe7a-56" value="Ready" style="text;html=1;align=right;verticalAlign=middle;whiteSpace=wrap;rounded=0;" vertex="1" parent="1">
          <mxGeometry x="-40" y="250" width="60" height="40" as="geometry" />
        </mxCell>
        <mxCell id="seRImUK0ty6d0D9ATe7a-57" value="" style="endArrow=none;html=1;rounded=0;" edge="1" parent="1">
          <mxGeometry width="50" height="50" relative="1" as="geometry">
            <mxPoint x="140" y="279.71000000000004" as="sourcePoint" />
            <mxPoint x="180" y="279.71000000000004" as="targetPoint" />
            <Array as="points">
              <mxPoint x="140" y="259.71000000000004" />
              <mxPoint x="180" y="259.71000000000004" />
            </Array>
          </mxGeometry>
        </mxCell>
        <mxCell id="seRImUK0ty6d0D9ATe7a-58" value="" style="endArrow=none;html=1;rounded=0;" edge="1" parent="1">
          <mxGeometry width="50" height="50" relative="1" as="geometry">
            <mxPoint x="100" y="279.71000000000004" as="sourcePoint" />
            <mxPoint x="140" y="279.71000000000004" as="targetPoint" />
          </mxGeometry>
        </mxCell>
        <mxCell id="seRImUK0ty6d0D9ATe7a-59" value="" style="endArrow=none;html=1;rounded=0;" edge="1" parent="1">
          <mxGeometry width="50" height="50" relative="1" as="geometry">
            <mxPoint x="60" y="280" as="sourcePoint" />
            <mxPoint x="140" y="279.71000000000004" as="targetPoint" />
          </mxGeometry>
        </mxCell>
        <mxCell id="seRImUK0ty6d0D9ATe7a-60" value="" style="endArrow=none;html=1;rounded=0;" edge="1" parent="1">
          <mxGeometry width="50" height="50" relative="1" as="geometry">
            <mxPoint x="180" y="280" as="sourcePoint" />
            <mxPoint x="260" y="280" as="targetPoint" />
          </mxGeometry>
        </mxCell>
        <mxCell id="seRImUK0ty6d0D9ATe7a-61" value="" style="endArrow=none;dashed=1;html=1;dashPattern=1 3;strokeWidth=2;rounded=0;" edge="1" parent="1">
          <mxGeometry width="50" height="50" relative="1" as="geometry">
            <mxPoint x="-60" y="300" as="sourcePoint" />
            <mxPoint x="-60" y="40" as="targetPoint" />
          </mxGeometry>
        </mxCell>
      </root>
    </mxGraphModel>
  </diagram>
</mxfile>
